<svg xmlns="http://www.w3.org/2000/svg" viewBox="0 0 200 200">
<rect width="200" height="200" rx="34" fill="#1B2555"/>
<circle cx="100" cy="100" r="92" fill="none" stroke="#C9971F" stroke-width="4"/><circle cx="100" cy="100" r="80" fill="none" stroke="#C9971F" stroke-width="2" opacity="0.7"/><circle cx="100.00" cy="14.00" r="4" fill="#C9971F"/><circle cx="122.26" cy="16.93" r="4" fill="#C9971F"/><circle cx="143.00" cy="25.52" r="4" fill="#C9971F"/><circle cx="160.81" cy="39.19" r="4" fill="#C9971F"/><circle cx="174.48" cy="57.00" r="4" fill="#C9971F"/><circle cx="183.07" cy="77.74" r="4" fill="#C9971F"/><circle cx="186.00" cy="100.00" r="4" fill="#C9971F"/><circle cx="183.07" cy="122.26" r="4" fill="#C9971F"/><circle cx="174.48" cy="143.00" r="4" fill="#C9971F"/><circle cx="160.81" cy="160.81" r="4" fill="#C9971F"/><circle cx="143.00" cy="174.48" r="4" fill="#C9971F"/><circle cx="122.26" cy="183.07" r="4" fill="#C9971F"/><circle cx="100.00" cy="186.00" r="4" fill="#C9971F"/><circle cx="77.74" cy="183.07" r="4" fill="#C9971F"/><circle cx="57.00" cy="174.48" r="4" fill="#C9971F"/><circle cx="39.19" cy="160.81" r="4" fill="#C9971F"/><circle cx="25.52" cy="143.00" r="4" fill="#C9971F"/><circle cx="16.93" cy="122.26" r="4" fill="#C9971F"/><circle cx="14.00" cy="100.00" r="4" fill="#C9971F"/><circle cx="16.93" cy="77.74" r="4" fill="#C9971F"/><circle cx="25.52" cy="57.00" r="4" fill="#C9971F"/><circle cx="39.19" cy="39.19" r="4" fill="#C9971F"/><circle cx="57.00" cy="25.52" r="4" fill="#C9971F"/><circle cx="77.74" cy="16.93" r="4" fill="#C9971F"/><line x1="100.00" y1="70.00" x2="100.00" y2="22.00" stroke="#C9971F" stroke-width="3" stroke-linecap="round"/><line x1="107.76" y1="71.02" x2="120.19" y2="24.66" stroke="#C9971F" stroke-width="3" stroke-linecap="round"/><line x1="115.00" y1="74.02" x2="139.00" y2="32.45" stroke="#C9971F" stroke-width="3" stroke-linecap="round"/><line x1="121.21" y1="78.79" x2="155.15" y2="44.85" stroke="#C9971F" stroke-width="3" stroke-linecap="round"/><line x1="125.98" y1="85.00" x2="167.55" y2="61.00" stroke="#C9971F" stroke-width="3" stroke-linecap="round"/><line x1="128.98" y1="92.24" x2="175.34" y2="79.81" stroke="#C9971F" stroke-width="3" stroke-linecap="round"/><line x1="130.00" y1="100.00" x2="178.00" y2="100.00" stroke="#C9971F" stroke-width="3" stroke-linecap="round"/><line x1="128.98" y1="107.76" x2="175.34" y2="120.19" stroke="#C9971F" stroke-width="3" stroke-linecap="round"/><line x1="125.98" y1="115.00" x2="167.55" y2="139.00" stroke="#C9971F" stroke-width="3" stroke-linecap="round"/><line x1="121.21" y1="121.21" x2="155.15" y2="155.15" stroke="#C9971F" stroke-width="3" stroke-linecap="round"/><line x1="115.00" y1="125.98" x2="139.00" y2="167.55" stroke="#C9971F" stroke-width="3" stroke-linecap="round"/><line x1="107.76" y1="128.98" x2="120.19" y2="175.34" stroke="#C9971F" stroke-width="3" stroke-linecap="round"/><line x1="100.00" y1="130.00" x2="100.00" y2="178.00" stroke="#C9971F" stroke-width="3" stroke-linecap="round"/><line x1="92.24" y1="128.98" x2="79.81" y2="175.34" stroke="#C9971F" stroke-width="3" stroke-linecap="round"/><line x1="85.00" y1="125.98" x2="61.00" y2="167.55" stroke="#C9971F" stroke-width="3" stroke-linecap="round"/><line x1="78.79" y1="121.21" x2="44.85" y2="155.15" stroke="#C9971F" stroke-width="3" stroke-linecap="round"/><line x1="74.02" y1="115.00" x2="32.45" y2="139.00" stroke="#C9971F" stroke-width="3" stroke-linecap="round"/><line x1="71.02" y1="107.76" x2="24.66" y2="120.19" stroke="#C9971F" stroke-width="3" stroke-linecap="round"/><line x1="70.00" y1="100.00" x2="22.00" y2="100.00" stroke="#C9971F" stroke-width="3" stroke-linecap="round"/><line x1="71.02" y1="92.24" x2="24.66" y2="79.81" stroke="#C9971F" stroke-width="3" stroke-linecap="round"/><line x1="74.02" y1="85.00" x2="32.45" y2="61.00" stroke="#C9971F" stroke-width="3" stroke-linecap="round"/><line x1="78.79" y1="78.79" x2="44.85" y2="44.85" stroke="#C9971F" stroke-width="3" stroke-linecap="round"/><line x1="85.00" y1="74.02" x2="61.00" y2="32.45" stroke="#C9971F" stroke-width="3" stroke-linecap="round"/><line x1="92.24" y1="71.02" x2="79.81" y2="24.66" stroke="#C9971F" stroke-width="3" stroke-linecap="round"/><circle cx="100" cy="100" r="22" fill="none" stroke="#C9971F" stroke-width="4"/><circle cx="100" cy="100" r="10" fill="#C9971F"/>
</svg>